<svg xmlns="http://www.w3.org/2000/svg" width="25.968" height="30" viewBox="0 0 25.968 30">
  <path id="Icon_awesome-facebook" data-name="Icon awesome-facebook" d="M26.531,15.654C26.531,7.317,20.719.563,13.547.563S.563,7.317.563,15.654c0,7.532,4.748,13.776,10.955,14.909V20.016h-3.3V15.654h3.3V12.329c0-3.782,1.937-5.871,4.9-5.871a17.283,17.283,0,0,1,2.907.295v3.712H17.691c-1.613,0-2.116,1.163-2.116,2.357v2.833h3.6L18.6,20.016H15.575V30.562C21.783,29.429,26.531,23.186,26.531,15.654Z" transform="translate(-0.563 -0.563)" fill="#f5f5f5"/>
</svg>
