<svg xmlns="http://www.w3.org/2000/svg" width="30" height="30" viewBox="0 0 30 30">
  <path id="Icon_awesome-youtube" data-name="Icon awesome-youtube" d="M30.423,9.194a4.867,4.867,0,0,0-2.652-3.8c-2.34-.9-11.721-.9-11.721-.9s-9.381,0-11.721.9a4.867,4.867,0,0,0-2.652,3.8A79.526,79.526,0,0,0,1.05,19.53a79.526,79.526,0,0,0,.627,10.336A4.759,4.759,0,0,0,4.329,33.6c2.34.9,11.721.9,11.721.9s9.381,0,11.721-.9a4.759,4.759,0,0,0,2.652-3.736A79.526,79.526,0,0,0,31.05,19.53a79.526,79.526,0,0,0-.627-10.336ZM12.982,25.874V13.186l7.841,6.344-7.841,6.344Z" transform="translate(-1.05 -4.5)" fill="#f5f5f5"/>
</svg>
